<?xml version="1.0" ?><svg id="Multicolor" viewBox="0 0 100 112" xmlns="http://www.w3.org/2000/svg"><defs><style>.cls-1{fill:#fff0ed;}.cls-2{fill:#ff87af;}.cls-3{fill:#ffb0ca;}.cls-4{fill:none;stroke:#45413c;stroke-linecap:round;stroke-linejoin:round;}.cls-5{fill:#45413c;fill-opacity:0.15;}</style></defs><title/><g id="Scene"><g data-name="New Symbol 1" id="New_Symbol_1-29"><circle class="cls-1" cx="49.917" cy="56.175" r="40"/></g><path class="cls-2" d="M64.917,40.175a15,15,0,1,0-18,14.7v6.3h-3a3,3,0,0,0,0,6h3v4a3,3,0,0,0,6,0v-4h3a3,3,0,0,0,0-6h-3v-6.3A15.025,15.025,0,0,0,64.917,40.175Zm-24,0a9,9,0,1,1,9,9A9.01,9.01,0,0,1,40.917,40.175Z"/><path class="cls-3" d="M49.917,28.175A16,16,0,0,1,64.8,38.287a15,15,0,0,0-29.763,0A16,16,0,0,1,49.917,28.175Z"/><path class="cls-4" d="M64.917,40.175a15,15,0,1,0-18,14.7v6.3h-3a3,3,0,0,0,0,6h3v4a3,3,0,0,0,6,0v-4h3a3,3,0,0,0,0-6h-3v-6.3A15.025,15.025,0,0,0,64.917,40.175Zm-24,0a9,9,0,1,1,9,9A9.01,9.01,0,0,1,40.917,40.175Z"/><ellipse class="cls-5" cx="50.362" cy="82.725" rx="15.525" ry="1.725"/></g></svg>