<?xml version="1.0" ?><svg id="Multicolor" viewBox="0 0 100 112" xmlns="http://www.w3.org/2000/svg"><defs><style>.cls-1{fill:#fff0ed;}.cls-2{fill:#45413c;fill-opacity:0.15;}.cls-3{fill:#4acfff;}.cls-4{fill:#80ddff;}.cls-5{fill:none;stroke:#45413c;stroke-linecap:round;stroke-linejoin:round;}</style></defs><title/><g id="Scene"><g data-name="New Symbol 1" id="New_Symbol_1-30"><circle class="cls-1" cx="49.934" cy="56.401" r="40"/></g><ellipse class="cls-2" cx="49.934" cy="83.325" rx="15.525" ry="1.725"/><path class="cls-3" d="M66.934,31.4h-12a3,3,0,1,0,0,6h4.758L53.2,43.89a15.012,15.012,0,1,0,4.242,4.242l6.49-6.489V46.4a3,3,0,1,0,6,0v-12A3,3,0,0,0,66.934,31.4Zm-22,34a9,9,0,1,1,9-9A9.01,9.01,0,0,1,44.934,65.4Z"/><path class="cls-4" d="M66.934,31.4h-12a3,3,0,0,0-2.826,4.007,3,3,0,0,1,2.826-1.992h12a3,3,0,0,1,3,3V34.4A3,3,0,0,0,66.934,31.4Z"/><path class="cls-4" d="M35.652,48.793a16,16,0,0,1,17.254-5.1A15,15,0,0,0,34.039,66.712,16,16,0,0,1,35.652,48.793Z"/><path class="cls-5" d="M66.934,31.4h-12a3,3,0,1,0,0,6h4.758L53.2,43.89a15.012,15.012,0,1,0,4.242,4.242l6.49-6.489V46.4a3,3,0,1,0,6,0v-12A3,3,0,0,0,66.934,31.4Zm-22,34a9,9,0,1,1,9-9A9.01,9.01,0,0,1,44.934,65.4Z"/></g></svg>